<svg xmlns="http://www.w3.org/2000/svg" xmlns:xlink="http://www.w3.org/1999/xlink" width="64" zoomAndPan="magnify" viewBox="0 0 48 48" height="64" preserveAspectRatio="xMidYMid meet" version="1.0"><defs><clipPath id="ed4203b9d8"><path d="M 6 0 L 41.617188 0 L 41.617188 47 L 6 47 Z M 6 0 " clip-rule="nonzero"/></clipPath></defs><g clip-path="url(#ed4203b9d8)"><path fill="#ffffff" d="M 39.269531 10.402344 C 39.449219 10.445312 39.601562 10.460938 39.726562 10.519531 C 40.164062 10.722656 40.351562 11.113281 40.441406 11.554688 C 40.457031 11.644531 40.382812 11.757812 40.332031 11.851562 C 40.257812 11.984375 40.164062 12.109375 40.058594 12.265625 C 40.414062 12.339844 40.65625 12.496094 40.8125 12.777344 C 40.996094 13.101562 40.871094 13.648438 40.554688 13.851562 C 40.277344 14.03125 40.097656 14.421875 40.171875 14.746094 C 40.1875 14.828125 40.269531 14.917969 40.347656 14.957031 C 40.707031 15.152344 40.941406 15.488281 41.226562 15.765625 C 41.296875 15.835938 41.328125 15.960938 41.34375 16.070312 C 41.476562 16.824219 41.214844 17.453125 40.703125 17.996094 C 40.640625 18.058594 40.53125 18.082031 40.4375 18.113281 C 40.363281 18.140625 40.28125 18.140625 40.210938 18.167969 C 39.972656 18.265625 39.921875 18.355469 39.964844 18.605469 C 39.976562 18.679688 39.996094 18.761719 40.023438 18.832031 C 40.171875 19.199219 40.078125 19.511719 39.828125 19.792969 C 39.605469 20.035156 39.351562 20.226562 39.015625 20.300781 C 38.59375 20.398438 38.234375 20.597656 37.953125 20.949219 C 37.691406 21.273438 37.699219 21.59375 37.84375 21.949219 C 37.953125 22.21875 38.042969 22.492188 38.136719 22.765625 C 38.238281 23.058594 38.183594 23.34375 38.027344 23.597656 C 37.910156 23.789062 37.773438 23.96875 37.632812 24.140625 C 37.523438 24.277344 37.371094 24.34375 37.1875 24.332031 C 37.121094 24.328125 37.054688 24.328125 36.988281 24.335938 C 36.644531 24.382812 36.484375 24.664062 36.617188 24.988281 C 36.636719 25.039062 36.65625 25.089844 36.679688 25.140625 C 37.007812 25.761719 36.875 26.328125 36.5 26.871094 C 36.261719 27.214844 35.902344 27.398438 35.511719 27.445312 C 34.925781 27.515625 34.351562 27.429688 33.832031 27.109375 C 33 26.59375 31.984375 26.980469 31.683594 27.925781 C 31.53125 28.398438 31.507812 28.894531 31.542969 29.382812 C 31.617188 30.363281 31.703125 31.339844 31.824219 32.316406 C 31.886719 32.8125 32.003906 33.304688 32.144531 33.78125 C 32.234375 34.078125 32.386719 34.359375 32.5625 34.617188 C 32.988281 35.246094 33.441406 35.855469 33.890625 36.464844 C 34.191406 36.871094 34.511719 37.257812 34.804688 37.667969 C 34.945312 37.851562 35.066406 38.0625 35.148438 38.277344 C 35.410156 38.964844 35.667969 39.65625 35.898438 40.355469 C 36.007812 40.683594 36.042969 41.03125 36.113281 41.371094 C 36.125 41.425781 36.113281 41.488281 36.132812 41.535156 C 36.3125 41.96875 36.207031 42.417969 36.21875 42.859375 C 36.238281 43.371094 35.847656 43.609375 35.324219 43.425781 C 35.03125 43.320312 34.734375 43.226562 34.441406 43.113281 C 33.621094 42.789062 32.757812 42.691406 31.890625 42.585938 C 30.234375 42.394531 28.570312 42.308594 26.902344 42.332031 C 24.261719 42.371094 21.636719 42.585938 19.058594 43.191406 C 17.382812 43.585938 15.742188 44.113281 14.15625 44.792969 C 13.511719 45.066406 12.898438 45.421875 12.265625 45.734375 C 11.988281 45.871094 11.703125 46.011719 11.410156 46.109375 C 11.203125 46.179688 10.972656 46.207031 10.753906 46.207031 C 10.378906 46.21875 10.113281 45.929688 10.179688 45.558594 C 10.226562 45.300781 10.300781 45.03125 10.425781 44.804688 C 11.15625 43.492188 12.070312 42.320312 13.175781 41.3125 C 14.800781 39.824219 16.523438 38.453125 18.445312 37.355469 C 18.84375 37.125 19.199219 36.832031 19.570312 36.566406 C 19.625 36.527344 19.683594 36.476562 19.707031 36.417969 C 20.027344 35.65625 20.34375 34.886719 20.289062 34.035156 C 20.261719 33.566406 20.179688 33.105469 20.109375 32.640625 C 19.925781 31.425781 19.507812 30.285156 19.027344 29.164062 C 18.835938 28.71875 18.667969 28.273438 18.375 27.882812 C 18.175781 27.625 17.902344 27.476562 17.640625 27.308594 C 17.582031 27.269531 17.488281 27.273438 17.414062 27.285156 C 17.257812 27.308594 17.101562 27.335938 16.953125 27.382812 C 15.769531 27.765625 14.5625 28.007812 13.320312 28.109375 C 12.324219 28.1875 11.332031 28.179688 10.34375 28.082031 C 9.882812 28.039062 9.527344 27.796875 9.382812 27.3125 C 9.222656 26.777344 9.105469 26.238281 9.117188 25.667969 C 9.128906 25.179688 9.132812 24.683594 9.070312 24.199219 C 9.015625 23.773438 8.863281 23.359375 8.746094 22.945312 C 8.726562 22.875 8.65625 22.820312 8.609375 22.753906 C 8.371094 22.425781 8.238281 22.066406 8.285156 21.65625 C 8.332031 21.234375 8.21875 20.875 7.949219 20.539062 C 7.589844 20.09375 7.273438 19.621094 6.941406 19.160156 C 6.710938 18.839844 6.703125 18.675781 6.964844 18.390625 C 7.140625 18.195312 7.347656 18.019531 7.554688 17.851562 C 8.046875 17.460938 8.539062 17.074219 8.863281 16.519531 C 9.179688 15.976562 9.371094 15.40625 9.28125 14.769531 C 9.273438 14.714844 9.277344 14.660156 9.28125 14.605469 C 9.324219 13.683594 9.152344 12.78125 8.980469 11.878906 C 8.886719 11.386719 8.898438 10.898438 9.003906 10.417969 C 9.082031 10.046875 9.191406 9.679688 9.304688 9.320312 C 9.699219 8.0625 10.273438 6.886719 10.96875 5.777344 C 11.503906 4.921875 12.207031 4.191406 13.050781 3.621094 C 13.824219 3.105469 14.558594 2.542969 15.265625 1.945312 C 15.726562 1.554688 16.234375 1.222656 16.742188 0.90625 C 17.503906 0.441406 18.367188 0.273438 19.234375 0.179688 C 20.011719 0.09375 20.792969 0.0546875 21.574219 0.0390625 C 23.265625 0 24.914062 0.257812 26.511719 0.8125 C 27.429688 1.128906 28.355469 1.433594 29.257812 1.796875 C 30.136719 2.152344 31.003906 2.558594 31.726562 3.195312 C 31.972656 3.414062 32.179688 3.6875 32.363281 3.960938 C 32.835938 4.648438 33.375 5.269531 34.054688 5.753906 C 34.195312 5.855469 34.375 5.90625 34.542969 5.964844 C 34.609375 5.984375 34.699219 5.964844 34.765625 5.933594 C 34.84375 5.894531 34.921875 5.839844 34.976562 5.773438 C 35.289062 5.351562 35.75 5.179688 36.222656 5.039062 C 37.019531 4.800781 37.6875 5.058594 38.289062 5.582031 C 38.542969 5.808594 38.519531 6.09375 38.457031 6.386719 C 38.425781 6.511719 38.324219 6.550781 38.199219 6.558594 C 38.070312 6.570312 37.945312 6.59375 37.816406 6.613281 C 37.824219 6.785156 37.886719 6.84375 38.027344 6.855469 C 38.183594 6.867188 38.335938 6.902344 38.484375 6.945312 C 38.703125 7.007812 38.820312 7.15625 38.808594 7.394531 C 38.804688 7.527344 38.808594 7.660156 38.808594 7.777344 C 38.859375 7.800781 38.882812 7.820312 38.902344 7.816406 C 39.445312 7.738281 39.6875 7.914062 39.78125 8.457031 C 39.796875 8.566406 39.792969 8.683594 39.820312 8.789062 C 39.894531 9.054688 39.804688 9.265625 39.664062 9.480469 C 39.527344 9.683594 39.414062 9.90625 39.308594 10.125 C 39.28125 10.195312 39.285156 10.292969 39.269531 10.402344 Z M 39.269531 10.402344 " fill-opacity="1" fill-rule="nonzero"/></g></svg>