<svg xmlns="http://www.w3.org/2000/svg" xmlns:xlink="http://www.w3.org/1999/xlink" width="64" zoomAndPan="magnify" viewBox="0 0 48 48" height="64" preserveAspectRatio="xMidYMid meet" version="1.0"><defs><clipPath id="d92ed6dc95"><path d="M 8.425781 0 L 39 0 L 39 47.019531 L 8.425781 47.019531 Z M 8.425781 0 " clip-rule="nonzero"/></clipPath></defs><g clip-path="url(#d92ed6dc95)"><path fill="#ffffff" d="M 35.730469 9.925781 C 35.726562 9.996094 35.710938 10.101562 35.722656 10.210938 C 35.777344 10.820312 35.859375 11.429688 35.898438 12.039062 C 35.925781 12.515625 35.910156 12.996094 35.898438 13.476562 C 35.886719 13.828125 35.84375 14.179688 35.832031 14.53125 C 35.808594 15.074219 35.792969 15.621094 35.785156 16.167969 C 35.78125 16.457031 35.886719 16.726562 36.042969 16.96875 C 36.394531 17.511719 36.765625 18.046875 37.113281 18.59375 C 37.476562 19.171875 37.828125 19.757812 38.183594 20.34375 C 38.269531 20.484375 38.265625 20.640625 38.167969 20.761719 C 38.050781 20.898438 37.917969 21.03125 37.769531 21.128906 C 37.589844 21.242188 37.378906 21.3125 37.183594 21.40625 C 37.058594 21.460938 36.9375 21.519531 36.816406 21.585938 C 36.570312 21.71875 36.414062 21.90625 36.425781 22.203125 C 36.441406 22.578125 36.441406 22.953125 36.496094 23.320312 C 36.527344 23.535156 36.496094 23.707031 36.363281 23.859375 C 36.191406 24.054688 36.117188 24.246094 36.207031 24.511719 C 36.25 24.636719 36.199219 24.808594 36.148438 24.9375 C 35.984375 25.335938 35.925781 25.742188 35.925781 26.167969 C 35.925781 26.804688 35.910156 27.441406 36.027344 28.074219 C 36.050781 28.203125 36.019531 28.347656 35.988281 28.480469 C 35.730469 29.480469 35.265625 30.335938 34.226562 30.710938 C 33.933594 30.820312 33.605469 30.851562 33.292969 30.863281 C 32.632812 30.890625 31.96875 30.863281 31.308594 30.898438 C 30.890625 30.921875 30.46875 30.988281 30.066406 31.097656 C 29.484375 31.25 29.089844 31.625 28.980469 32.242188 C 28.875 32.835938 28.742188 33.425781 28.675781 34.027344 C 28.574219 34.953125 28.777344 35.816406 29.402344 36.546875 C 29.828125 37.050781 30.265625 37.542969 30.707031 38.035156 C 31.429688 38.847656 32.332031 39.464844 33.121094 40.199219 C 33.5625 40.613281 34.007812 41.023438 34.449219 41.4375 C 35.324219 42.253906 36.175781 43.089844 36.914062 44.039062 C 37.613281 44.933594 38.171875 45.910156 38.667969 46.929688 C 38.773438 47.148438 38.734375 47.386719 38.585938 47.574219 C 38.394531 47.816406 38.144531 47.9375 37.8125 47.890625 C 36.238281 47.667969 34.71875 47.226562 33.183594 46.839844 C 31.066406 46.304688 28.949219 45.742188 26.832031 45.203125 C 25.382812 44.835938 23.941406 44.460938 22.484375 44.144531 C 21.375 43.90625 20.246094 43.734375 19.117188 43.578125 C 17.898438 43.40625 16.679688 43.277344 15.457031 43.152344 C 15.015625 43.105469 14.570312 43.128906 14.125 43.128906 C 13.398438 43.132812 12.671875 43.144531 11.941406 43.152344 C 11.839844 43.152344 11.734375 43.152344 11.632812 43.140625 C 11.285156 43.089844 11.097656 42.894531 11.121094 42.542969 C 11.140625 42.195312 11.195312 41.847656 11.257812 41.5 C 11.359375 40.910156 11.46875 40.3125 11.601562 39.726562 C 11.777344 38.945312 12.132812 38.226562 12.496094 37.515625 C 12.933594 36.664062 13.375 35.816406 13.824219 34.96875 C 14.453125 33.777344 14.824219 32.503906 15.039062 31.179688 C 15.210938 30.109375 15.324219 29.035156 15.300781 27.949219 C 15.285156 27.308594 15.222656 26.667969 15.003906 26.066406 C 14.765625 25.398438 14.347656 24.824219 13.875 24.289062 C 13.25 23.578125 12.542969 22.949219 11.808594 22.355469 C 11.234375 21.890625 10.773438 21.328125 10.449219 20.65625 C 10.40625 20.566406 10.359375 20.46875 10.296875 20.390625 C 9.808594 19.78125 9.53125 19.070312 9.304688 18.335938 C 8.890625 17.003906 8.695312 15.636719 8.589844 14.246094 C 8.457031 12.566406 8.789062 10.988281 9.449219 9.460938 C 9.941406 8.320312 10.582031 7.277344 11.324219 6.292969 C 12.035156 5.351562 12.78125 4.449219 13.648438 3.652344 C 14.863281 2.535156 16.160156 1.523438 17.773438 1.046875 C 19.335938 0.582031 20.902344 0.132812 22.554688 0.132812 C 22.75 0.132812 22.941406 0.101562 23.132812 0.09375 C 24.09375 0.0703125 25.042969 0.191406 25.988281 0.316406 C 26.878906 0.433594 27.769531 0.566406 28.632812 0.835938 C 29.730469 1.183594 30.804688 1.601562 31.855469 2.070312 C 32.636719 2.417969 33.285156 2.957031 33.890625 3.550781 C 34.46875 4.117188 35.046875 4.675781 35.730469 5.121094 C 36.238281 5.453125 36.519531 5.957031 36.671875 6.542969 C 36.855469 7.242188 36.851562 7.960938 36.863281 8.679688 C 36.863281 8.816406 36.863281 8.953125 36.863281 9.085938 C 36.871094 9.4375 36.636719 9.816406 36.308594 9.910156 C 36.148438 9.964844 35.972656 9.925781 35.730469 9.925781 Z M 35.730469 9.925781 " fill-opacity="1" fill-rule="nonzero"/></g></svg>